<?xml version="1.0" encoding="utf-8" ?>
<svg baseProfile="full" height="5001px" version="1.1" width="5001px" xmlns="http://www.w3.org/2000/svg" xmlns:ev="http://www.w3.org/2001/xml-events" xmlns:xlink="http://www.w3.org/1999/xlink"><defs /><rect fill="#ffffff" height="100%" width="100%" x="0" y="0" /><polygon clip-path="url(#border_clip)" fill="#ff0000" fill-rule="evenodd" points="2501.5,2501.5 1.5,3001.5 1.5,1501.5 1001.5,1501.5 1001.5,3001.5 1.5,3001.5" stroke-width="0" /><polygon clip-path="url(#border_clip)" fill="#008000" fill-rule="evenodd" points="1.5,3001.5 1001.5,3001.5 1001.4999999999998,1501.5 2001.4999999999998,1501.4999999999998 2001.5000000000002,3001.5 1001.5000000000002,3001.5" stroke-width="0" /><polygon clip-path="url(#border_clip)" fill="#0000ff" fill-rule="evenodd" points="1001.5000000000002,3001.5 2001.5,3001.5 2001.4999999999993,1501.5 3001.4999999999995,1501.4999999999995 3001.5,3001.4999999999995 2001.5000000000002,3001.5" stroke-width="0" /><polygon clip-path="url(#border_clip)" fill="#ffff00" fill-rule="evenodd" points="2001.5000000000002,3001.5 3001.5,3001.5 3001.499999999999,1501.5 4001.499999999999,1501.4999999999993 4001.5,3001.499999999999 3001.5,3001.5" stroke-width="0" /><polyline clip-path="url(#border_clip)" fill="none" points="420.1526713848407,2484.2090915285203 446.37252883660085,2493.752339187664 473.6653798079876,2499.5536137483145 501.5000000000007,2501.5000000000005" stroke="black" stroke-linecap="round" stroke-width="10" /><polyline clip-path="url(#border_clip)" fill="none" points="1420.1526713848396,2484.2090915285203 1446.3725288365997,2493.752339187664 1473.6653798079865,2499.553613748314 1501.4999999999995,2501.5" stroke="black" stroke-linecap="round" stroke-width="10" /><polyline clip-path="url(#border_clip)" fill="none" points="2420.15267138484,2484.2090915285203 2446.3725288366,2493.752339187664 2473.665379807987,2499.553613748314 2501.5,2501.5" stroke="black" stroke-linecap="round" stroke-width="10" /><polyline clip-path="url(#border_clip)" fill="none" points="3420.15267138484,2484.2090915285203 3446.3725288366,2493.752339187664 3473.665379807987,2499.5536137483145 3501.5,2501.5000000000005" stroke="black" stroke-linecap="round" stroke-width="10" /><polyline clip-path="url(#border_clip)" fill="none" points="4420.152671384839,2484.2090915285203 4446.372528836599,2493.752339187664 4473.665379807986,2499.5536137483145 4501.499999999999,2501.5000000000005" stroke="black" stroke-linecap="round" stroke-width="10" /><polyline clip-path="url(#border_clip)" fill="none" points="1.5,3001.5 1.5,1501.5 1001.5,1501.5 1001.5,3001.5 1.5,3001.5" stroke="black" stroke-linecap="round" stroke-width="0" /><polyline clip-path="url(#border_clip)" fill="none" points="1001.5,3001.5 1001.4999999999998,1501.5 2001.4999999999998,1501.4999999999998 2001.5000000000002,3001.5 1001.5000000000002,3001.5" stroke="black" stroke-linecap="round" stroke-width="0" /><polyline clip-path="url(#border_clip)" fill="none" points="2001.5,3001.5 2001.4999999999993,1501.5 3001.4999999999995,1501.4999999999995 3001.5,3001.4999999999995 2001.5000000000002,3001.5" stroke="black" stroke-linecap="round" stroke-width="0" /><polyline clip-path="url(#border_clip)" fill="none" points="3001.5,3001.5 3001.499999999999,1501.5 4001.499999999999,1501.4999999999993 4001.5,3001.499999999999 3001.5,3001.5" stroke="black" stroke-linecap="round" stroke-width="0" /><polyline clip-path="url(#border_clip)" fill="none" points="501.5,2501.5 529.3346201920131,2499.553613748314 556.6274711633998,2493.752339187664 582.84732861516,2484.2090915285203 607.483852846641,2471.1096192312853 630.0575219373079,2454.7088886237957 650.1289650954789,2435.3261212717716 667.3075145110083,2413.338580694149 681.2588092598335,2389.1742293578154 691.7113032590307,2363.3033988749894 698.4615506024415,2336.229635533386 701.3781654038191,2308.4798993405 700.4043790736546,2280.594307346469 695.5591452551992,2253.115620880066 686.9367709133573,2226.5786813168174 674.7050807568876,2201.5 659.1021507213443,2178.367704934868 640.4316740917993,2157.6320399322694 619.0570504584944,2139.69660112501 595.394312557178,2124.9104814282146 569.9040286651336,2113.5614758428183 543.0823381635516,2105.8704798532385 515.4512947488249,2101.987189948035 487.54870525117485,2101.987189948035 459.91766183644813,2105.870479853239 433.09597133486614,2113.5614758428183 407.6056874428218,2124.9104814282146 383.9429495415052,2139.6966011250106 362.5683259082002,2157.63203993227 343.8978492786555,2178.3677049348685 328.29491924311196,2201.5 316.0632290866424,2226.5786813168174 307.4408547448006,2253.1156208800667 302.5956209263454,2280.5943073464696 301.6218345961811,2308.4798993405 304.53844939755845,2336.229635533386 311.2886967409695,2363.30339887499 321.741190740167,2389.174229357816 335.69248548899213,2413.3385806941496 352.8710349045218,2435.326121271772 372.94247806269277,2454.7088886237957 395.5161471533597,2471.1096192312853 420.1526713848407,2484.2090915285203" stroke="black" stroke-linecap="round" stroke-width="10" /><polyline clip-path="url(#border_clip)" fill="none" points="1501.5,2501.5 1529.334620192013,2499.553613748314 1556.6274711634,2493.752339187664 1582.8473286151602,2484.2090915285203 1607.4838528466412,2471.1096192312853 1630.0575219373081,2454.7088886237957 1650.128965095479,2435.3261212717716 1667.3075145110088,2413.338580694149 1681.258809259834,2389.1742293578154 1691.7113032590312,2363.3033988749894 1698.461550602442,2336.2296355333856 1701.3781654038198,2308.4798993404997 1700.4043790736553,2280.594307346469 1695.5591452551998,2253.115620880066 1686.936770913358,2226.578681316817 1674.7050807568883,2201.4999999999995 1659.102150721345,2178.3677049348676 1640.4316740917998,2157.632039932269 1619.057050458495,2139.6966011250097 1595.3943125571786,2124.9104814282136 1569.904028665134,2113.5614758428173 1543.0823381635523,2105.870479853238 1515.4512947488254,2101.9871899480345 1487.5487052511753,2101.9871899480345 1459.9176618364484,2105.870479853238 1433.0959713348664,2113.5614758428173 1407.6056874428218,2124.9104814282136 1383.9429495415052,2139.6966011250097 1362.5683259082002,2157.632039932269 1343.8978492786553,2178.3677049348676 1328.294919243112,2201.4999999999995 1316.0632290866422,2226.578681316817 1307.4408547448004,2253.1156208800658 1302.595620926345,2280.5943073464687 1301.6218345961804,2308.4798993404997 1304.538449397558,2336.2296355333856 1311.2886967409688,2363.3033988749894 1321.741190740166,2389.1742293578154 1335.6924854889912,2413.338580694149 1352.8710349045207,2435.3261212717716 1372.9424780626916,2454.7088886237957 1395.5161471533586,2471.1096192312853 1420.1526713848396,2484.2090915285203" stroke="black" stroke-linecap="round" stroke-width="10" /><polyline clip-path="url(#border_clip)" fill="none" points="2501.5,2501.5 2529.334620192013,2499.553613748314 2556.6274711634,2493.752339187664 2582.84732861516,2484.2090915285203 2607.483852846641,2471.1096192312853 2630.057521937308,2454.7088886237957 2650.1289650954795,2435.3261212717716 2667.307514511009,2413.338580694149 2681.258809259834,2389.1742293578154 2691.7113032590314,2363.303398874989 2698.4615506024425,2336.2296355333856 2701.37816540382,2308.4798993404997 2700.4043790736555,2280.5943073464687 2695.5591452552,2253.1156208800658 2686.936770913358,2226.578681316817 2674.7050807568885,2201.499999999999 2659.102150721345,2178.3677049348676 2640.4316740918002,2157.6320399322685 2619.0570504584953,2139.6966011250092 2595.3943125571786,2124.9104814282136 2569.9040286651343,2113.561475842817 2543.0823381635523,2105.8704798532376 2515.451294748825,2101.987189948034 2487.548705251175,2101.987189948034 2459.917661836448,2105.8704798532376 2433.095971334866,2113.561475842817 2407.605687442822,2124.910481428213 2383.942949541505,2139.6966011250092 2362.5683259082,2157.6320399322685 2343.897849278655,2178.367704934867 2328.2949192431115,2201.499999999999 2316.063229086642,2226.5786813168165 2307.4408547448,2253.1156208800653 2302.5956209263445,2280.5943073464687 2301.62183459618,2308.4798993404993 2304.5384493975575,2336.2296355333856 2311.2886967409686,2363.303398874989 2321.741190740166,2389.174229357815 2335.692485488991,2413.338580694149 2352.8710349045205,2435.3261212717716 2372.9424780626914,2454.7088886237957 2395.5161471533584,2471.1096192312853 2420.15267138484,2484.2090915285203" stroke="black" stroke-linecap="round" stroke-width="10" /><polyline clip-path="url(#border_clip)" fill="none" points="3501.5,2501.5 3529.334620192013,2499.553613748314 3556.6274711634,2493.752339187664 3582.84732861516,2484.2090915285203 3607.4838528466416,2471.1096192312853 3630.0575219373086,2454.7088886237957 3650.1289650954795,2435.3261212717716 3667.3075145110092,2413.338580694149 3681.2588092598344,2389.174229357815 3691.711303259032,2363.303398874989 3698.461550602443,2336.2296355333856 3701.3781654038203,2308.4798993404993 3700.404379073656,2280.5943073464687 3695.5591452552007,2253.1156208800653 3686.9367709133585,2226.5786813168165 3674.705080756889,2201.4999999999986 3659.1021507213454,2178.367704934867 3640.4316740918007,2157.6320399322685 3619.0570504584957,2139.696601125009 3595.394312557179,2124.9104814282127 3569.9040286651343,2113.5614758428164 3543.082338163553,2105.870479853237 3515.4512947488256,2101.987189948033 3487.5487052511753,2101.987189948033 3459.917661836448,2105.870479853237 3433.0959713348666,2113.5614758428164 3407.605687442822,2124.9104814282127 3383.942949541505,2139.696601125009 3362.5683259082,2157.632039932268 3343.897849278655,2178.3677049348667 3328.2949192431115,2201.499999999998 3316.063229086642,2226.578681316816 3307.4408547448,2253.1156208800653 3302.5956209263445,2280.594307346468 3301.6218345961797,2308.4798993404993 3304.5384493975575,2336.229635533385 3311.2886967409686,2363.303398874989 3321.7411907401656,2389.174229357815 3335.6924854889908,2413.338580694149 3352.8710349045205,2435.3261212717716 3372.9424780626914,2454.7088886237957 3395.5161471533584,2471.1096192312853 3420.15267138484,2484.2090915285203" stroke="black" stroke-linecap="round" stroke-width="10" /><polyline clip-path="url(#border_clip)" fill="none" points="4501.5,2501.5 4529.334620192013,2499.553613748314 4556.6274711634,2493.752339187664 4582.84732861516,2484.2090915285203 4607.483852846641,2471.1096192312853 4630.057521937308,2454.7088886237957 4650.128965095479,2435.3261212717716 4667.307514511009,2413.338580694149 4681.258809259834,2389.174229357815 4691.711303259031,2363.303398874989 4698.461550602442,2336.229635533385 4701.37816540382,2308.4798993404993 4700.404379073656,2280.594307346468 4695.559145255201,2253.1156208800653 4686.9367709133585,2226.578681316816 4674.7050807568885,2201.499999999998 4659.102150721345,2178.367704934866 4640.4316740918,2157.6320399322676 4619.057050458496,2139.6966011250083 4595.394312557179,2124.9104814282123 4569.904028665134,2113.561475842816 4543.082338163552,2105.8704798532362 4515.451294748825,2101.987189948032 4487.548705251174,2101.987189948032 4459.917661836447,2105.8704798532362 4433.095971334866,2113.5614758428155 4407.605687442821,2124.910481428212 4383.942949541504,2139.696601125008 4362.5683259082,2157.632039932267 4343.897849278655,2178.3677049348657 4328.294919243111,2201.4999999999977 4316.063229086641,2226.5786813168156 4307.440854744798,2253.1156208800644 4302.595620926343,2280.5943073464678 4301.621834596179,2308.479899340499 4304.538449397556,2336.2296355333847 4311.288696740967,2363.3033988749885 4321.741190740165,2389.1742293578145 4335.692485488989,2413.3385806941487 4352.87103490452,2435.326121271771 4372.9424780626905,2454.7088886237952 4395.516147153357,2471.1096192312853 4420.152671384839,2484.2090915285203" stroke="black" stroke-linecap="round" stroke-width="10" /></svg>